<?xml version="1.0" encoding="UTF-8" standalone="no"?>
<svg width="240px" height="74px" viewBox="0 0 240 74" version="1.1" xmlns="http://www.w3.org/2000/svg" xmlns:xlink="http://www.w3.org/1999/xlink" xmlns:sketch="http://www.bohemiancoding.com/sketch/ns">
    <!-- Generator: Sketch 3.2.2 (9983) - http://www.bohemiancoding.com/sketch -->
    <title>Untitled</title>
    <desc>Created with Sketch.</desc>
    <defs></defs>
    <g id="Page-1" stroke="none" stroke-width="1" fill="none" fill-rule="evenodd" sketch:type="MSPage">
        <g id="Dark" sketch:type="MSLayerGroup" transform="translate(0.000000, -1.000000)">
            <g id="eco-green-leaf-icon" transform="translate(181.876180, 18.218448) rotate(-22.000000) translate(-181.876180, -18.218448) translate(169.876180, 4.218448)" fill="#5C832F" sketch:type="MSShapeGroup">
                <g id="layer4" transform="translate(1.000000, 0.454545)">
                    <g id="g5458" transform="translate(0.198353, 0.094179)">
                        <path d="M13.4837243,6.99262886 C21.4131021,4.32703801 21.2512793,0.180562426 21.2512793,0.180562426 C21.2512793,0.180562426 22.8695212,18.8397025 9.27629439,20.6167659 C9.27629439,20.6167659 5.59171885,21.3653623 3.67506934,20.1611511 C3.67506934,20.1611511 1.75841982,23.7476162 2.01588007,25.4754028 L0.24226302,25.553937 C0.24226302,25.553937 3.21736274,18.4071837 4.59048708,17.5694712 L2.96515401,18.8397025 C2.96515401,18.8397025 -0.422337027,11.667382 13.4837243,6.99262886 Z" id="path4670"></path>
                    </g>
                </g>
            </g>
            <path d="M28.912,74 L28.912,68.672 L6.592,68.672 L6.592,25.976 L0.616,25.976 L0.616,74 L28.912,74 Z M51.304,74.864 C56.992,74.864 61.672,72.992 65.128,69.536 L62.536,66.008 C59.8,68.816 55.768,70.4 51.808,70.4 C44.32,70.4 39.712,64.928 39.28,58.376 L67.432,58.376 L67.432,57.008 C67.432,46.568 61.24,38.36 50.728,38.36 C40.792,38.36 33.592,46.496 33.592,56.576 C33.592,67.448 41.008,74.864 51.304,74.864 L51.304,74.864 Z M62.104,54.416 L39.28,54.416 C39.568,49.088 43.24,42.824 50.656,42.824 C58.576,42.824 62.032,49.232 62.104,54.416 L62.104,54.416 Z M103.288,74 L103.288,50.096 C103.288,41.672 97.168,38.36 89.824,38.36 C84.136,38.36 79.672,40.232 75.928,44.12 L78.448,47.864 C81.544,44.552 84.928,43.04 89.104,43.04 C94.144,43.04 97.888,45.704 97.888,50.384 L97.888,56.648 C95.08,53.408 91.12,51.896 86.368,51.896 C80.464,51.896 74.2,55.568 74.2,63.344 C74.2,70.904 80.464,74.864 86.368,74.864 C91.048,74.864 95.008,73.208 97.888,70.04 L97.888,74 L103.288,74 Z M88.312,70.976 C83.272,70.976 79.744,67.808 79.744,63.416 C79.744,58.952 83.272,55.784 88.312,55.784 C92.128,55.784 95.8,57.224 97.888,60.104 L97.888,66.656 C95.8,69.536 92.128,70.976 88.312,70.976 L88.312,70.976 Z M121,74 L121,43.976 L128.056,43.976 L128.056,39.224 L121,39.224 L121,36.56 C121,32.168 122.944,29.72 126.472,29.72 C128.272,29.72 129.64,30.44 130.792,31.448 L133.024,27.92 C130.864,25.904 128.416,25.256 125.68,25.256 C119.488,25.256 115.6,29.432 115.6,36.56 L115.6,39.224 L109.84,39.224 L109.84,43.976 L115.6,43.976 L115.6,74 L121,74 Z M168.856,74 L168.856,68.672 L146.536,68.672 L146.536,25.976 L140.56,25.976 L140.56,74 L168.856,74 Z M179.464,74 L179.464,39.224 L174.064,39.224 L174.064,74 L179.464,74 Z M201.28,74.864 C210.28,74.864 214.96,70.184 214.96,64.352 C214.96,50.816 193.432,55.856 193.432,48.224 C193.432,45.128 196.384,42.752 201.136,42.752 C205.6,42.752 209.416,44.624 211.504,47.144 L214.024,43.4 C211.216,40.592 207.04,38.36 201.136,38.36 C192.856,38.36 188.176,42.968 188.176,48.368 C188.176,61.256 209.704,56.072 209.704,64.496 C209.704,67.952 206.824,70.472 201.496,70.472 C196.744,70.472 192.352,68.168 190.048,65.504 L187.24,69.392 C190.768,73.136 195.592,74.864 201.28,74.864 L201.28,74.864 Z M232.528,74.864 C235.696,74.864 237.64,73.928 239.008,72.632 L237.424,68.6 C236.704,69.392 235.264,70.04 233.752,70.04 C231.376,70.04 230.224,68.168 230.224,65.576 L230.224,43.976 L237.28,43.976 L237.28,39.224 L230.224,39.224 L230.224,29.72 L224.824,29.72 L224.824,39.224 L219.064,39.224 L219.064,43.976 L224.824,43.976 L224.824,66.728 C224.824,71.912 227.416,74.864 232.528,74.864 L232.528,74.864 Z" id="LeafList" fill="#3B3A3A" sketch:type="MSShapeGroup"></path>
        </g>
    </g>
</svg>